<?xml version="1.0" encoding="UTF-8"?>
<svg width="291px" height="72px" viewBox="0 0 291 72" version="1.1" xmlns="http://www.w3.org/2000/svg" xmlns:xlink="http://www.w3.org/1999/xlink">
    <title>Group 5459</title>
    <g id="Page-21" stroke="none" stroke-width="1" fill="none" fill-rule="evenodd">
        <g id="WHITE_Brand_Identity_Mend_StyleGuide_4-28-22" transform="translate(-1034.000000, -584.000000)">
            <g id="Group-5459" transform="translate(1034.486600, 584.558500)">
                <path d="M133.8548,70.5629 L140.4538,70.5629 C140.8568,70.5629 141.1868,70.4259 141.4438,70.1529 C141.6998,69.8789 141.8288,69.5599 141.8288,69.1959 L141.8288,48.6829 L148.0438,60.1149 C148.2638,60.5169 148.5198,60.8269 148.8138,61.0449 C149.1068,61.2639 149.4918,61.3739 149.9678,61.3739 L152.8278,61.3739 C153.6338,61.3739 154.2758,60.9549 154.7528,60.1149 L160.9118,48.6829 L160.9118,69.1959 C160.9118,69.5969 161.0498,69.9249 161.3248,70.1799 C161.5998,70.4359 161.9378,70.5629 162.3418,70.5629 L168.8868,70.5629 C169.2898,70.5629 169.6288,70.4359 169.9038,70.1799 C170.1788,69.9249 170.3158,69.5969 170.3158,69.1959 L170.3158,33.6409 C170.3158,33.2399 170.1788,32.9119 169.9038,32.6569 C169.6288,32.4019 169.2898,32.2739 168.8868,32.2739 L163.0018,32.2739 C162.1218,32.2739 161.4798,32.6749 161.0768,33.4769 L151.3978,50.7069 L141.7188,33.4769 C141.3148,32.6749 140.6738,32.2739 139.7938,32.2739 L133.8548,32.2739 C133.4878,32.2739 133.1678,32.4019 132.8928,32.6569 C132.6178,32.9119 132.4798,33.2399 132.4798,33.6409 L132.4798,69.1959 C132.4798,69.5599 132.6178,69.8789 132.8928,70.1529 C133.1678,70.4259 133.4878,70.5629 133.8548,70.5629 L133.8548,70.5629 Z M180.8638,70.5629 L206.9858,70.5629 C207.3888,70.5629 207.7188,70.4259 207.9758,70.1529 C208.2318,69.8789 208.3608,69.5599 208.3608,69.1959 L208.3608,64.0539 C208.3608,63.6529 208.2318,63.3249 207.9758,63.0689 C207.7188,62.8149 207.3888,62.6859 206.9858,62.6859 L189.0028,62.6859 L189.0028,55.0829 L205.3358,55.0829 C205.7388,55.0829 206.0688,54.9459 206.3258,54.6729 C206.5818,54.3989 206.7108,54.0809 206.7108,53.7159 L206.7108,48.9569 C206.7108,48.5559 206.5818,48.2179 206.3258,47.9449 C206.0688,47.6709 205.7388,47.5349 205.3358,47.5349 L189.0028,47.5349 L189.0028,40.1499 L206.5458,40.1499 C206.9488,40.1499 207.2788,40.0139 207.5358,39.7399 C207.7918,39.4669 207.9208,39.1479 207.9208,38.7829 L207.9208,33.6409 C207.9208,33.2399 207.7918,32.9119 207.5358,32.6569 C207.2788,32.4019 206.9488,32.2739 206.5458,32.2739 L180.8638,32.2739 C180.4968,32.2739 180.1758,32.4019 179.9008,32.6569 C179.6258,32.9119 179.4888,33.2399 179.4888,33.6409 L179.4888,69.1959 C179.4888,69.5599 179.6258,69.8789 179.9008,70.1529 C180.1758,70.4259 180.4968,70.5629 180.8638,70.5629 L180.8638,70.5629 Z M217.6708,70.5629 L224.2708,70.5629 C224.6738,70.5629 225.0038,70.4259 225.2608,70.1529 C225.5168,69.8789 225.6458,69.5599 225.6458,69.1959 L225.6458,49.2849 L239.0638,69.5239 C239.4668,70.2169 240.0718,70.5629 240.8788,70.5629 L246.7628,70.5629 C247.1668,70.5629 247.4958,70.4259 247.7528,70.1529 C248.0088,69.8789 248.1378,69.5429 248.1378,69.1409 L248.1378,33.6409 C248.1378,33.2399 248.0088,32.9119 247.7528,32.6569 C247.4958,32.4019 247.1668,32.2739 246.7628,32.2739 L240.1638,32.2739 C239.7968,32.2739 239.4768,32.4019 239.2018,32.6569 C238.9268,32.9119 238.7888,33.2399 238.7888,33.6409 L238.7888,54.3169 L225.3708,33.3129 C225.0408,32.6209 224.4168,32.2739 223.5008,32.2739 L217.6708,32.2739 C217.3038,32.2739 216.9838,32.4019 216.7088,32.6569 C216.4338,32.9119 216.2958,33.2399 216.2958,33.6409 L216.2958,69.1959 C216.2958,69.5599 216.4338,69.8789 216.7088,70.1529 C216.9838,70.4259 217.3038,70.5629 217.6708,70.5629 L217.6708,70.5629 Z M258.7188,70.5629 L273.2928,70.5629 C278.7178,70.5629 282.8518,69.3319 285.6938,66.8709 C288.5348,64.4089 290.0468,60.6449 290.2308,55.5749 C290.2668,54.5549 290.2858,53.1689 290.2858,51.4179 C290.2858,49.6679 290.2668,48.2649 290.2308,47.2059 C290.0838,42.3569 288.5258,38.6549 285.5558,36.1029 C282.5868,33.5499 278.4068,32.2739 273.0178,32.2739 L258.7188,32.2739 C258.3518,32.2739 258.0318,32.4019 257.7568,32.6569 C257.4818,32.9119 257.3438,33.2399 257.3438,33.6409 L257.3438,69.1959 C257.3438,69.5599 257.4818,69.8789 257.7568,70.1529 C258.0318,70.4259 258.3518,70.5629 258.7188,70.5629 L258.7188,70.5629 Z M267.2428,62.6859 L267.2428,40.1499 L272.7428,40.1499 C275.1618,40.1499 276.9858,40.7339 278.2148,41.9009 C279.4428,43.0679 280.0928,44.8729 280.1668,47.3159 C280.2398,48.3369 280.2768,49.6869 280.2768,51.3639 C280.2768,53.0409 280.2398,54.4089 280.1668,55.4659 C280.0928,57.9819 279.4878,59.8149 278.3518,60.9629 C277.2148,62.1119 275.4368,62.6859 273.0178,62.6859 L267.2428,62.6859 Z" id="Fill-5447" fill="#030042"></path>
                <path d="M53.463,67.317 C36.541,66.486 23.08,52.503 23.08,35.378 C23.08,32.513 23.465,29.737 24.172,27.098 C24.893,26.329 25.905,25.847 27.032,25.847 C29.216,25.847 30.993,27.642 30.993,29.843 L30.993,31.13 C30.993,31.152 30.984,31.174 30.984,31.192 L30.984,40.917 C30.984,44.94 34.247,48.216 38.252,48.216 C42.257,48.216 45.519,44.94 45.519,40.917 L45.519,33.071 C45.519,33.044 45.51,33.022 45.51,32.995 L45.51,29.843 C45.51,27.642 47.287,25.847 49.471,25.847 C51.655,25.847 53.432,27.642 53.432,29.843 L53.432,38.557 L53.432,38.565 L53.432,40.917 C53.432,44.94 56.69,48.216 60.695,48.216 C64.7,48.216 67.963,44.94 67.963,40.917 L67.963,33.071 C67.963,33.044 67.954,33.022 67.954,32.995 L67.954,29.843 C67.954,27.642 69.731,25.847 71.915,25.847 C74.098,25.847 75.876,27.642 75.876,29.843 L75.876,30.104 C75.876,30.122 75.871,30.14 75.871,30.162 L75.871,40.917 C75.871,44.622 78.634,47.689 82.197,48.154 C82.502,48.193 82.816,48.216 83.134,48.216 C83.563,48.216 83.983,48.171 84.394,48.101 C79.474,59.431 68.192,67.357 55.054,67.357 C54.52,67.357 53.989,67.344 53.463,67.317 M55.054,3.408 C55.227,3.408 55.395,3.408 55.567,3.413 C72.989,3.687 87.029,17.895 87.029,35.382 C87.029,38.278 86.635,41.076 85.919,43.746 L85.919,43.751 C85.915,43.755 85.915,43.755 85.915,43.76 C85.91,43.764 85.906,43.768 85.901,43.768 L85.901,43.773 C85.185,44.476 84.213,44.913 83.134,44.913 C80.95,44.913 79.173,43.119 79.173,40.917 L79.173,38.618 C79.173,38.596 79.178,38.579 79.178,38.561 L79.178,29.843 C79.178,25.821 75.92,22.545 71.915,22.545 C67.91,22.545 64.647,25.821 64.647,29.843 L64.647,38.755 C64.647,38.778 64.656,38.8 64.656,38.826 L64.656,40.917 C64.656,43.119 62.879,44.913 60.695,44.913 C58.511,44.913 56.734,43.119 56.734,40.917 L56.734,29.843 C56.734,25.821 53.476,22.545 49.471,22.545 C45.466,22.545 42.204,25.821 42.204,29.843 L42.204,38.755 C42.204,38.778 42.213,38.804 42.213,38.826 L42.213,40.917 C42.213,43.119 40.435,44.913 38.252,44.913 C36.068,44.913 34.291,43.119 34.291,40.917 L34.291,39.631 C34.291,39.609 34.3,39.591 34.3,39.569 L34.3,29.843 C34.3,25.821 31.042,22.549 27.036,22.545 L27.032,22.545 C26.581,22.545 26.144,22.589 25.715,22.669 C30.63,11.334 41.912,3.408 55.054,3.408 M106.926,32.195 L90.455,32.195 C90.349,32.195 90.238,32.204 90.136,32.213 C88.585,14.194 73.475,0.048 55.054,0.048 C54.948,0.048 3.183,0 3.183,0 C1.428,0 0,1.428 0,3.183 L0,35.378 C0,37.133 1.428,38.561 3.183,38.561 L19.654,38.561 C19.769,38.561 19.88,38.557 19.99,38.543 C21.63,56.301 36.448,70.23 54.573,70.478 L106.926,70.518 C108.681,70.518 110.109,69.09 110.109,67.335 L110.109,35.378 C110.109,33.623 108.681,32.195 106.926,32.195" id="Fill-5449" fill="#030042"></path>
                <path d="M84.3941,48.1006 C79.4741,59.4306 68.1921,67.3566 55.0541,67.3566 C54.5191,67.3566 53.9891,67.3436 53.4631,67.3166 C36.5411,66.4856 23.0801,52.5036 23.0801,35.3776 C23.0801,32.5136 23.4651,29.7376 24.1721,27.0986 C24.8921,26.3286 25.9051,25.8476 27.0321,25.8476 C29.2161,25.8476 30.9931,27.6416 30.9931,29.8436 L30.9931,31.1296 C30.9931,31.1516 30.9841,31.1736 30.9841,31.1916 L30.9841,40.9166 C30.9841,44.9396 34.2461,48.2156 38.2521,48.2156 C42.2571,48.2156 45.5191,44.9396 45.5191,40.9166 L45.5191,33.0706 C45.5191,33.0436 45.5101,33.0216 45.5101,32.9956 L45.5101,29.8436 C45.5101,27.6416 47.2871,25.8476 49.4711,25.8476 C51.6551,25.8476 53.4321,27.6416 53.4321,29.8436 L53.4321,38.5566 L53.4321,38.5656 L53.4321,40.9166 C53.4321,44.9396 56.6901,48.2156 60.6951,48.2156 C64.7001,48.2156 67.9621,44.9396 67.9621,40.9166 L67.9621,33.0706 C67.9621,33.0436 67.9541,33.0216 67.9541,32.9956 L67.9541,29.8436 C67.9541,27.6416 69.7311,25.8476 71.9151,25.8476 C74.0981,25.8476 75.8751,27.6416 75.8751,29.8436 L75.8751,30.1046 C75.8751,30.1216 75.8711,30.1396 75.8711,30.1616 L75.8711,40.9166 C75.8711,44.6216 78.6341,47.6896 82.1971,48.1536 C82.5021,48.1936 82.8161,48.2156 83.1341,48.2156 C83.5631,48.2156 83.9831,48.1716 84.3941,48.1006" id="Fill-5451" fill="#0B7E9E"></path>
                <path d="M87.0288,35.3824 C87.0288,38.2784 86.6358,41.0764 85.9188,43.7464 L85.9188,43.7504 C85.9148,43.7554 85.9148,43.7554 85.9148,43.7594 C85.9108,43.7644 85.9058,43.7684 85.9018,43.7684 L85.9018,43.7724 C85.1858,44.4754 84.2128,44.9134 83.1338,44.9134 C80.9508,44.9134 79.1738,43.1184 79.1738,40.9174 L79.1738,38.6184 C79.1738,38.5964 79.1778,38.5784 79.1778,38.5604 L79.1778,29.8434 C79.1778,25.8204 75.9198,22.5454 71.9148,22.5454 C67.9098,22.5454 64.6468,25.8204 64.6468,29.8434 L64.6468,38.7554 C64.6468,38.7774 64.6558,38.7994 64.6558,38.8264 L64.6558,40.9174 C64.6558,43.1184 62.8788,44.9134 60.6948,44.9134 C58.5118,44.9134 56.7338,43.1184 56.7338,40.9174 L56.7338,29.8434 C56.7338,25.8204 53.4768,22.5454 49.4708,22.5454 C45.4658,22.5454 42.2038,25.8204 42.2038,29.8434 L42.2038,38.7554 C42.2038,38.7774 42.2128,38.8044 42.2128,38.8264 L42.2128,40.9174 C42.2128,43.1184 40.4358,44.9134 38.2518,44.9134 C36.0678,44.9134 34.2908,43.1184 34.2908,40.9174 L34.2908,39.6304 C34.2908,39.6084 34.2998,39.5904 34.2998,39.5684 L34.2998,29.8434 C34.2998,25.8204 31.0418,22.5494 27.0368,22.5454 L27.0318,22.5454 C26.5808,22.5454 26.1438,22.5894 25.7148,22.6684 C30.6308,11.3344 41.9118,3.4084 55.0548,3.4084 C55.2268,3.4084 55.3948,3.4084 55.5668,3.4124 C72.9888,3.6864 87.0288,17.8944 87.0288,35.3824" id="Fill-5453" fill="#00C7BA"></path>
                <path d="M19.8669,35.2587 C19.8669,20.9817 28.3749,8.7007 40.5919,3.1827 L3.9519,3.1827 C3.5279,3.1827 3.1829,3.5227 3.1829,3.9477 L3.1829,34.6137 C3.1829,35.0377 3.5279,35.3777 3.9519,35.3777 L19.8699,35.3777 C19.8699,35.3377 19.8669,35.2987 19.8669,35.2587" id="Fill-5455" fill="#00C7BA"></path>
                <path d="M90.2915,35.3781 C90.2915,49.6551 81.7835,61.9361 69.5665,67.4541 L106.2065,67.4541 C106.6305,67.4541 106.9755,67.1141 106.9755,66.6891 L106.9755,36.0231 C106.9755,35.5991 106.6305,35.2591 106.2065,35.2591 L90.2885,35.2591 C90.2885,35.2991 90.2915,35.3381 90.2915,35.3781" id="Fill-5457" fill="#0B7E9E"></path>
            </g>
        </g>
    </g>
</svg>