<svg xmlns="http://www.w3.org/2000/svg" width="160" height="230" viewBox="0 0 160 230">
  <g id="logo_primary_color" data-name="logo primary color" transform="translate(-1114 -426.5)">
    <g id="logo_primary_color-2" data-name="logo primary color" transform="translate(1114 426.5)">
      <g id="Group_1028" data-name="Group 1028" transform="translate(0.555)">
        <path id="Path_486" data-name="Path 486" d="M52.015,208.365V229.6h-8.46v-19.19a12.561,12.561,0,0,0-.65-4.26,5.53,5.53,0,0,0-1.88-2.63,5.371,5.371,0,0,0-3.21-.89,5.566,5.566,0,0,0-3.48,1.09,6.482,6.482,0,0,0-2.15,3.28,18.3,18.3,0,0,0-.72,5.6v17H23v-19.32a9.73,9.73,0,0,0-1.4-5.74,4.71,4.71,0,0,0-4.06-1.91,5.857,5.857,0,0,0-3.59,1.09,6.612,6.612,0,0,0-2.21,3.28,17.382,17.382,0,0,0-.76,5.6v17H2.445v-33.66h8.54v4.5a9.982,9.982,0,0,1,2.56-2.97,10.449,10.449,0,0,1,3.34-1.7,11.862,11.862,0,0,1,3.45-.51,12.881,12.881,0,0,1,5.05.99,9.9,9.9,0,0,1,4.17,3.38c.16.23.29.49.44.73a11.4,11.4,0,0,1,4.44-3.91,12.579,12.579,0,0,1,5.43-1.2,11.754,11.754,0,0,1,6.96,1.91,11.405,11.405,0,0,1,3.93,4.89,16.048,16.048,0,0,1,1.26,6.31" transform="translate(-2 -0.298)" fill="#29275c"/>
        <path id="Path_487" data-name="Path 487" d="M80.7,197.512a16.77,16.77,0,0,0-8.672-2.254,17.068,17.068,0,0,0-8.775,2.254,16.081,16.081,0,0,0-6.043,6.18,19.691,19.691,0,0,0,.034,18.1,16.263,16.263,0,0,0,6.043,6.247,16.877,16.877,0,0,0,8.74,2.254h0A16.562,16.562,0,0,0,80.7,228a16.347,16.347,0,0,0,6.009-6.248,19.754,19.754,0,0,0,0-18.06,16.169,16.169,0,0,0-6.009-6.18m-1.332,20.62a7.778,7.778,0,0,1-2.868,3.483,7.984,7.984,0,0,1-4.472,1.229,8.273,8.273,0,0,1-4.575-1.229,7.91,7.91,0,0,1-2.936-3.483,14.8,14.8,0,0,1,0-10.822,7.728,7.728,0,0,1,2.936-3.415,8.455,8.455,0,0,1,4.575-1.2,8.154,8.154,0,0,1,4.472,1.2,7.6,7.6,0,0,1,2.868,3.415,15.282,15.282,0,0,1,0,10.822" transform="translate(-2.197 -0.298)" fill="#29275c"/>
        <path id="Path_488" data-name="Path 488" d="M122.755,203.325a14.313,14.313,0,0,0-5.19-5.98,13.23,13.23,0,0,0-7.23-2.08,11.786,11.786,0,0,0-5.06,1.12,10.59,10.59,0,0,0-4.06,3.42c-.19.27-.35.55-.51.83v-18.62h-8.47V229.6h8.47v-4.64c.2.33.39.67.61.99a10.114,10.114,0,0,0,4.13,3.34,12.461,12.461,0,0,0,4.89.99v.01a13.079,13.079,0,0,0,7.68-2.29,14.411,14.411,0,0,0,4.95-6.28,22.66,22.66,0,0,0,1.7-8.98,21.075,21.075,0,0,0-1.91-9.42m-7.58,14.61a7.951,7.951,0,0,1-2.83,3.38,7.628,7.628,0,0,1-4.34,1.19,7.4,7.4,0,0,1-4.26-1.22,7.98,7.98,0,0,1-2.8-3.42,13.735,13.735,0,0,1,0-10.24,7.757,7.757,0,0,1,2.8-3.38,7.48,7.48,0,0,1,4.26-1.2,7.715,7.715,0,0,1,4.34,1.2,7.974,7.974,0,0,1,2.83,3.34,11.8,11.8,0,0,1,1.03,5.16,12.192,12.192,0,0,1-1.03,5.19" transform="translate(-2.328 -0.298)" fill="#29275c"/>
        <path id="Path_489" data-name="Path 489" d="M158.535,203.325a14.313,14.313,0,0,0-5.19-5.98,13.24,13.24,0,0,0-7.24-2.08,11.775,11.775,0,0,0-5.05,1.12,10.59,10.59,0,0,0-4.06,3.42,8.942,8.942,0,0,0-.51.84v-18.63h-8.47V229.6h8.47v-4.64c.2.33.39.67.61.99a10.05,10.05,0,0,0,4.13,3.34,12.449,12.449,0,0,0,4.88.99v.01a13.089,13.089,0,0,0,7.69-2.29,14.411,14.411,0,0,0,4.95-6.28,22.661,22.661,0,0,0,1.7-8.98,21.075,21.075,0,0,0-1.91-9.42m-7.58,14.61a8.023,8.023,0,0,1-2.83,3.38,7.628,7.628,0,0,1-4.34,1.19,7.454,7.454,0,0,1-4.27-1.22,8.125,8.125,0,0,1-2.8-3.42,13.832,13.832,0,0,1,0-10.24,7.826,7.826,0,0,1,2.8-3.38,7.534,7.534,0,0,1,4.27-1.2,7.715,7.715,0,0,1,4.34,1.2,8.046,8.046,0,0,1,2.83,3.34,13.515,13.515,0,0,1,0,10.35" transform="translate(-2.455 -0.298)" fill="#29275c"/>
      </g>
      <g id="logo_mark_color" data-name="logo mark color">
        <g id="Group_1029" data-name="Group 1029" transform="translate(27.896 118.871)">
          <path id="Path_490" data-name="Path 490" d="M85.818,122.335c-32.451,8.953-43.967,22.134-58,28.367a95.078,95.078,0,0,0,97.149,6.9C110.5,138.592,95.83,137.223,85.818,122.335" transform="translate(-27.818 -116.647)" fill="#29275c"/>
          <path id="Path_493" data-name="Path 493" d="M113.424,116.705c-5.7.8-10.94,1.713-15.8,2.716-.638.133-1.276.262-1.91.4h0q-5.015,1.1-9.976,2.429l-.5.14c10.012,14.888,24.684,16.257,39.149,35.27q3.071-1.551,6.01-3.317v-.221c-5.337-11.287-12.751-18.541-16.97-37.419" transform="translate(-27.375 -116.705)" fill="#ff5d53"/>
        </g>
        <g id="Group_1030" data-name="Group 1030">
          <path id="Path_491" data-name="Path 491" d="M96.191,67.9a80.306,80.306,0,0,1,16.092-.344c.216,4.365,0,10.607,0,10.607s8.037-6.312,11.752,1.738c2.49,5.4-.686,13.879-10.928,20.767-.812.645-2.085,1.251-1.388,2.418s5.466-.432,9.41-1.762C136.11,96.277,160.38,86.055,160,72.584c-.127-4.444-3.314-7.9-7.519-10.541l-.192-.109c-26.211-14.809-68.477-6.691-68.477-6.691s12.675-8.57,16.528-22.6c3.237-11.782-.42-27.291-1.633-32C98.548.46,98.525.144,98.387,0,69.439,3.488,72.581,15.7,38.4,20.235c-6.248,13.631-6.848,36.888-6.891,44.4C28.717,65.707-1.35,75.148.047,91.895c1.442,14.8,34.469,16.837,34.469,16.837S23.9,99.692,23.006,90.168c5.122,10.725,13.73,19.559,18.95,17.511s4.654-17.078,5.7-21.859,6.427-6.831,8.9-1.258c2.13,4.793,6.252,14.451,16.552,14.571A32.344,32.344,0,0,1,68.25,86.321c-1.2-11.191,6.206-15.4,11.366-16.485S96.191,67.9,96.191,67.9" transform="translate(0)" fill="#29275c"/>
          <path id="Path_492" data-name="Path 492" d="M130.7,54.677S105.107,8.45,97.825,0c1.216,4.711,5.2,20.858,1.953,32.641C95.914,46.673,83.2,55.243,83.2,55.243s24.318-4.657,47.537-.482Z" transform="translate(0.502)" fill="#ff5d53"/>
          <path id="Path_494" data-name="Path 494" d="M79.157,69.154c-5.175,1.083-12.6,5.293-11.4,16.484a32.286,32.286,0,0,0,4.877,12.814c.143,0,.284.007.43,0,.21,0,.416-.016.625-.026s.391-.015.593-.033c.146-.011.294-.032.442-.046a22.126,22.126,0,0,0,3.456-.652c13.573-3.669,16.8-20.879,17.49-28.977.011-.129.02-.25.029-.374s.022-.264.031-.387c.017-.244.035-.522.049-.745,0,0-11.448.853-16.624,1.936" transform="translate(0.449 0.682)" fill="#ff5d53"/>
        </g>
      </g>
    </g>
  </g>
</svg>
